<svg width="237" height="23" viewBox="0 0 237 23" fill="none" xmlns="http://www.w3.org/2000/svg">
<path d="M11.338 22.31C9.788 22.31 8.34133 22.0207 6.998 21.442C5.65467 20.8633 4.47667 20.0677 3.464 19.055C2.45133 18.0217 1.65567 16.8333 1.077 15.49C0.519 14.126 0.24 12.669 0.24 11.119C0.24 9.569 0.519 8.12233 1.077 6.779C1.65567 5.43567 2.441 4.25767 3.433 3.245C4.44567 2.21167 5.61333 1.416 6.936 0.857999C8.27933 0.279332 9.726 -0.0100012 11.276 -0.0100012C12.826 -0.0100012 14.2623 0.279332 15.585 0.857999C16.9283 1.416 18.1063 2.21167 19.119 3.245C20.1317 4.25767 20.917 5.446 21.475 6.81C22.0537 8.15333 22.343 9.6 22.343 11.15C22.343 12.7 22.0537 14.157 21.475 15.521C20.917 16.8643 20.1317 18.0423 19.119 19.055C18.127 20.0677 16.9593 20.8633 15.616 21.442C14.2933 22.0207 12.8673 22.31 11.338 22.31ZM11.276 18.9C12.7433 18.9 14.0247 18.5693 15.12 17.908C16.236 17.2467 17.104 16.3373 17.724 15.18C18.3647 14.002 18.685 12.6483 18.685 11.119C18.685 9.98233 18.499 8.949 18.127 8.019C17.7757 7.06833 17.2693 6.252 16.608 5.57C15.9467 4.86733 15.1613 4.33 14.252 3.958C13.3633 3.586 12.3713 3.4 11.276 3.4C9.82933 3.4 8.548 3.73067 7.432 4.392C6.33667 5.03267 5.46867 5.93167 4.828 7.089C4.208 8.24633 3.898 9.58967 3.898 11.119C3.898 12.2557 4.07367 13.3097 4.425 14.281C4.797 15.2317 5.30333 16.048 5.944 16.73C6.60533 17.412 7.39067 17.9493 8.3 18.342C9.20933 18.714 10.2013 18.9 11.276 18.9ZM31.2073 22V18.9H37.4383C38.5336 18.9 39.381 18.559 39.9803 17.877C40.5796 17.195 40.8793 16.4097 40.8793 15.521C40.8793 14.9217 40.745 14.3637 40.4763 13.847C40.2076 13.3303 39.815 12.917 39.2983 12.607C38.7816 12.297 38.1616 12.142 37.4383 12.142H31.2073V9.042H36.9113C37.8413 9.042 38.5853 8.80433 39.1433 8.329C39.7013 7.85367 39.9803 7.151 39.9803 6.221C39.9803 5.291 39.7013 4.58833 39.1433 4.113C38.5853 3.63767 37.8413 3.4 36.9113 3.4H31.2073V0.299999H37.0043C38.4716 0.299999 39.691 0.568665 40.6623 1.106C41.6336 1.64333 42.357 2.33567 42.8323 3.183C43.3076 4.03033 43.5453 4.93967 43.5453 5.911C43.5453 7.04767 43.225 8.05 42.5843 8.918C41.9643 9.786 41.0446 10.4887 39.8253 11.026L40.1043 9.91C41.4683 10.468 42.5326 11.2533 43.2973 12.266C44.062 13.2787 44.4443 14.467 44.4443 15.831C44.4443 16.947 44.1653 17.97 43.6073 18.9C43.07 19.83 42.264 20.5843 41.1893 21.163C40.1353 21.721 38.8333 22 37.2833 22H31.2073ZM28.7583 22V0.299999H32.3233V22H28.7583ZM50.8325 22V0.299999H54.3975V22H50.8325ZM61.8871 22V0.299999H65.4521V22H61.8871ZM64.3361 22V18.745H76.4881V22H64.3361ZM64.3361 12.483V9.352H75.4341V12.483H64.3361ZM64.3361 3.555V0.299999H76.3331V3.555H64.3361ZM85.4113 22V18.745H91.1153C92.6033 18.745 93.9053 18.4247 95.0213 17.784C96.158 17.1433 97.0363 16.2547 97.6563 15.118C98.297 13.9607 98.6173 12.6277 98.6173 11.119C98.6173 9.631 98.297 8.31867 97.6563 7.182C97.0156 6.04533 96.127 5.15667 94.9903 4.516C93.8743 3.87533 92.5826 3.555 91.1153 3.555H85.4113V0.299999H91.2083C92.779 0.299999 94.236 0.578999 95.5793 1.137C96.9226 1.67433 98.0903 2.439 99.0823 3.431C100.095 4.40233 100.88 5.54933 101.438 6.872C101.996 8.174 102.275 9.6 102.275 11.15C102.275 12.6793 101.996 14.1053 101.438 15.428C100.88 16.7507 100.105 17.908 99.1133 18.9C98.1213 19.8713 96.9536 20.636 95.6103 21.194C94.267 21.7313 92.8203 22 91.2703 22H85.4113ZM82.9623 22V0.299999H86.5273V22H82.9623ZM107.088 22L116.016 0.299999H118.496L127.362 22H123.518L116.574 4.423H117.876L110.87 22H107.088ZM111.49 17.815V14.715H122.991V17.815H111.49ZM139.735 22.31C138.123 22.31 136.718 22 135.519 21.38C134.32 20.7393 133.297 19.8713 132.45 18.776L133.163 18.094C134.031 19.272 135.013 20.1193 136.108 20.636C137.203 21.132 138.433 21.38 139.797 21.38C141.326 21.38 142.577 21.008 143.548 20.264C144.519 19.52 145.005 18.4867 145.005 17.164C145.005 16.172 144.798 15.366 144.385 14.746C143.992 14.1053 143.465 13.5887 142.804 13.196C142.143 12.8033 141.419 12.4623 140.634 12.173C139.849 11.863 139.063 11.5633 138.278 11.274C137.493 10.964 136.769 10.592 136.108 10.158C135.447 9.70333 134.909 9.135 134.496 8.453C134.103 7.75033 133.907 6.86167 133.907 5.787C133.907 4.77433 134.145 3.896 134.62 3.152C135.116 2.38733 135.798 1.79833 136.666 1.385C137.534 0.950999 138.547 0.733998 139.704 0.733998C141.047 0.733998 142.246 0.992332 143.3 1.509C144.354 2.02567 145.253 2.76967 145.997 3.741L145.284 4.423C144.581 3.53433 143.775 2.85233 142.866 2.377C141.977 1.90167 140.923 1.664 139.704 1.664C138.299 1.664 137.152 2.02567 136.263 2.749C135.374 3.47233 134.93 4.47467 134.93 5.756C134.93 6.686 135.126 7.45067 135.519 8.05C135.932 8.62867 136.47 9.11433 137.131 9.507C137.792 9.879 138.516 10.2097 139.301 10.499C140.086 10.7677 140.872 11.057 141.657 11.367C142.442 11.677 143.166 12.0593 143.827 12.514C144.488 12.9687 145.015 13.5577 145.408 14.281C145.821 14.9837 146.028 15.8827 146.028 16.978C146.028 18.7347 145.46 20.0677 144.323 20.977C143.207 21.8657 141.678 22.31 139.735 22.31ZM159.039 22V1.633H160.031V22H159.039ZM151.072 1.943V1.044H167.998V1.943H151.072ZM182.634 22.31C181.166 22.31 179.802 22.0413 178.542 21.504C177.302 20.946 176.217 20.171 175.287 19.179C174.357 18.187 173.633 17.04 173.117 15.738C172.6 14.4153 172.342 12.9997 172.342 11.491C172.342 9.96167 172.59 8.546 173.086 7.244C173.602 5.942 174.326 4.80533 175.256 3.834C176.186 2.86267 177.271 2.10833 178.511 1.571C179.751 1.013 181.104 0.733998 182.572 0.733998C184.039 0.733998 185.393 1.013 186.633 1.571C187.893 2.10833 188.978 2.86267 189.888 3.834C190.818 4.80533 191.541 5.95233 192.058 7.275C192.574 8.577 192.833 9.99267 192.833 11.522C192.833 13.0307 192.574 14.4463 192.058 15.769C191.562 17.071 190.849 18.218 189.919 19.21C188.989 20.1813 187.904 20.946 186.664 21.504C185.444 22.0413 184.101 22.31 182.634 22.31ZM182.572 21.349C184.328 21.349 185.899 20.915 187.284 20.047C188.668 19.179 189.764 18.001 190.57 16.513C191.376 15.025 191.779 13.351 191.779 11.491C191.779 10.1063 191.541 8.825 191.066 7.647C190.611 6.44833 189.97 5.40467 189.144 4.516C188.317 3.62733 187.346 2.935 186.23 2.439C185.114 1.943 183.894 1.695 182.572 1.695C180.815 1.695 179.244 2.129 177.86 2.997C176.475 3.84433 175.38 5.012 174.574 6.5C173.788 7.96733 173.396 9.631 173.396 11.491C173.396 12.8757 173.623 14.1673 174.078 15.366C174.553 16.5647 175.204 17.6187 176.031 18.528C176.857 19.4167 177.829 20.109 178.945 20.605C180.061 21.101 181.27 21.349 182.572 21.349ZM201.233 12.142V11.243H208.115C209.83 11.243 211.132 10.8193 212.021 9.972C212.909 9.104 213.354 7.97767 213.354 6.593C213.354 5.18767 212.909 4.06133 212.021 3.214C211.132 2.36667 209.83 1.943 208.115 1.943H201.233V1.044H207.96C209.344 1.044 210.512 1.28166 211.463 1.757C212.413 2.21167 213.137 2.86267 213.633 3.71C214.129 4.53667 214.377 5.49767 214.377 6.593C214.377 7.68833 214.129 8.65967 213.633 9.507C213.137 10.3337 212.413 10.9847 211.463 11.46C210.512 11.9147 209.344 12.142 207.96 12.142H201.233ZM200.737 22V1.044H201.729V22H200.737ZM214.625 22L206.224 11.708L207.309 11.522L215.958 22H214.625ZM222.841 22V1.044H223.833V22H222.841ZM223.399 22V21.101H236.326V22H223.399ZM223.399 11.677V10.809H235.396V11.677H223.399ZM223.399 1.943V1.044H236.14V1.943H223.399Z" fill="#272727"/>
</svg>
